<?xml version="1.0" standalone="no"?>
<!DOCTYPE svg PUBLIC "-//W3C//DTD SVG 20010904//EN"
 "http://www.w3.org/TR/2001/REC-SVG-20010904/DTD/svg10.dtd">
<svg version="1.0" xmlns="http://www.w3.org/2000/svg"
 width="25.000000pt" height="25.000000pt" viewBox="0 0 225.000000 225.000000"
 preserveAspectRatio="xMidYMid meet">

<g transform="translate(0.000000,225.000000) scale(0.100000,-0.100000)"
fill="#E50E51" stroke="none">
<path d="M953 2115 c-389 -70 -698 -355 -805 -742 -31 -113 -31 -381 0 -496
98 -356 355 -619 707 -722 121 -36 319 -45 448 -21 670 127 1022 842 715 1451
-194 384 -642 607 -1065 530z m494 -807 c178 -178 323 -328 323 -334 0 -12
-153 -164 -166 -164 -5 0 -117 108 -249 240 l-240 240 -242 -242 -243 -243
-87 88 -88 87 325 325 c179 179 329 325 335 325 5 0 155 -145 332 -322z"/>
</g>
</svg>
